:SAMPLES-PER-SECOND 30
:FULLY-SPECIFIED
:DEGREES
66
root  -25.5485 39.1184 -21.3996 -170.247 -76.99 165.731
RightUpLeg  -24.465 -8.13236 -9.37252
RightLeg  57.5559 -2.83384 -5.20106
RightFoot  4.72112 -0.368868 2.82846
RightToes  0.000482159 0.542163 -0.142577
Spine  31.712 -1.96526 0.431108
Spine1  14.0458 -0.423683 -4.84154
HEad  7.36913 1.91908 -4.14607
LeftShoulder1  9.21707 -14.8919 -43.5972
LeftArm  -12.4832 4.14488 -27.8155
LeftForeArm  25.3579 -23.8359 -3.75761
LeftHand  -0.25398 0.0180481 5.50724
RightShoulder  5.77667 10.7872 34.4662
RightArm  -1.11378 3.37274 37.0597
RightForeArm  0.223535 21.6474 4.95072
RightHand  -1.60797 4.38941 -19.2645
LeftUpLeg  -14.2951 19.5519 -13.7017
LeftLeg  23.4027 7.29807 3.79078
LeftFoot  -10.0484 -0.0531591 10.0545
LeftToes  1.06247e-005 4.65855e-005 -8.18501e-006
67
root  -26.3619 39.2344 -21.8286 -165.881 -78.8148 162.15
RightUpLeg  -26.9535 -7.59626 -9.60106
RightLeg  47.1398 -4.98684 -6.07238
RightFoot  4.18733 -0.0553745 0.624946
RightToes  0.000482159 0.542163 -0.142577
Spine  33.7138 -2.46195 0.697454
Spine1  14.2194 -0.984262 -4.39362
HEad  4.9486 0.719144 -3.82125
LeftShoulder1  9.26034 -15.3609 -42.657
LeftArm  -13.9323 0.811115 -28.3091
LeftForeArm  27.699 -27.5165 -4.42955
LeftHand  -0.25398 0.0180481 5.50724
RightShoulder  5.74769 10.9062 33.9371
RightArm  -1.03107 5.12885 36.5482
RightForeArm  -0.754797 20.542 5.14731
RightHand  -1.58988 4.22582 -19.362
LeftUpLeg  -13.2699 18.8326 -13.4067
LeftLeg  23.0893 5.93971 3.11274
LeftFoot  -10.981 0.036464 9.3875
LeftToes  1.06247e-005 4.65855e-005 -8.18501e-006
68
root  -27.233 39.2839 -22.2879 -158.628 -80.7287 156.043
RightUpLeg  -28.0619 -9.66938 -9.50428
RightLeg  33.781 -5.94858 -4.68669
RightFoot  4.19284 -0.194272 1.62334
RightToes  0.000482159 0.542163 -0.142577
Spine  35.235 -3.08055 1.03111
Spine1  14.3743 -1.65181 -3.88258
HEad  2.27336 -0.415878 -3.41937
LeftShoulder1  9.23711 -15.8038 -41.494
LeftArm  -15.3466 -2.48093 -28.7998
LeftForeArm  28.7454 -30.3375 -5.015
LeftHand  -0.25398 0.0180481 5.50724
RightShoulder  5.74968 11.1085 33.4011
RightArm  -1.18146 7.01767 35.8329
RightForeArm  -1.84759 19.4 5.46388
RightHand  -1.6322 4.38025 -19.56
LeftUpLeg  -13.0327 17.1398 -13.3351
LeftLeg  23.6091 5.43726 2.94279
LeftFoot  -11.7818 0.104458 8.65642
LeftToes  1.06247e-005 4.65855e-005 -8.18501e-006
69
root  -28.1639 39.2447 -22.7875 -147.727 -82.5175 146.499
RightUpLeg  -28.2672 -14.8007 -8.39981
RightLeg  19.644 -6.01131 -2.02096
RightFoot  3.76169 -0.686044 5.40222
RightToes  0.000482159 0.542163 -0.142577
Spine  36.5148 -3.70718 1.57918
Spine1  14.4203 -2.24755 -3.35923
HEad  -0.445996 -1.7471 -3.22049
LeftShoulder1  9.16142 -16.2024 -40.2191
LeftArm  -15.9249 -6.06512 -28.8841
LeftForeArm  28.8615 -31.7135 -5.33403
LeftHand  -0.25398 0.0180481 5.50724
RightShoulder  5.67566 11.1812 32.7028
RightArm  -2.07322 8.95965 35.264
RightForeArm  -1.84543 18.161 5.7966
RightHand  -1.74597 4.9119 -19.8499
LeftUpLeg  -13.4432 15.0017 -13.3004
LeftLeg  25.2133 5.41402 3.1226
LeftFoot  -12.8577 0.190899 8.44205
LeftToes  1.06247e-005 4.65855e-005 -8.18501e-006
70
root  -29.1281 39.0735 -23.3589 -131.994 -83.4537 131.979
RightUpLeg  -27.6204 -16.3806 -8.99756
RightLeg  8.26017 -10.6027 1.554
RightFoot  2.02349 -0.867108 7.46487
RightToes  0.000482159 0.542163 -0.142577
Spine  37.8199 -3.84311 1.72974
Spine1  14.5013 -2.53706 -2.6174
HEad  -3.02475 -3.45533 -3.14632
LeftShoulder1  9.13689 -16.5307 -39.3769
LeftArm  -15.4252 -10.4254 -27.8562
LeftForeArm  28.7829 -31.502 -5.28931
LeftHand  -0.25398 0.0180481 5.50724
RightShoulder  5.53565 11.0978 31.9645
RightArm  -3.5795 10.911 34.7137
RightForeArm  -1.40787 16.8405 6.13228
RightHand  -1.85721 5.43412 -20.1009
LeftUpLeg  -14.0565 13.0986 -13.4141
LeftLeg  27.609 5.33727 3.37458
LeftFoot  -14.8373 0.341288 8.33779
LeftToes  1.06247e-005 4.65855e-005 -8.18501e-006
71
root  -30.0559 38.8168 -23.9908 -113.148 -83.3648 114.026
RightUpLeg  -27.1348 -13.2174 -11.5348
RightLeg  2.65203 -17.2206 4.18922
RightFoot  1.7613 -0.749399 6.62221
RightToes  0.000482159 0.542163 -0.142577
Spine  39.4403 -3.57441 1.63179
Spine1  14.8969 -2.71231 -1.54502
HEad  -5.65057 -5.49017 -2.75334
LeftShoulder1  9.20766 -16.7874 -39.1575
LeftArm  -14.5604 -15.659 -25.7643
LeftForeArm  28.8322 -30.1094 -4.95927
LeftHand  -0.25398 0.0180481 5.50724
RightShoulder  5.41024 11.0494 31.2246
RightArm  -5.42906 12.9019 34.0456
RightForeArm  -1.69907 15.4488 6.50359
RightHand  -1.96964 5.93236 -20.3794
LeftUpLeg  -15.156 11.2526 -13.6755
LeftLeg  31.2483 5.11513 3.69453
LeftFoot  -16.4276 0.378989 6.33748
LeftToes  1.06247e-005 4.65855e-005 -8.18501e-006
72
root  -30.8967 38.4931 -24.6341 -94.558 -82.9749 96.0191
RightUpLeg  -28.9092 -13.7027 -11.4961
RightLeg  4.59161 -16.1832 3.44974
RightFoot  6.14353 -0.546565 3.95298
RightToes  0.000482159 0.542163 -0.142577
Spine  41.7089 -3.71469 2.57006
Spine1  15.0919 -2.79649 -1.02183
HEad  -8.47445 -7.88 -1.65322
LeftShoulder1  9.23279 -17.091 -38.6336
LeftArm  -13.9773 -21.2501 -23.8479
LeftForeArm  28.6287 -27.9351 -4.47514
LeftHand  -0.25398 0.0180481 5.50724
RightShoulder  5.26966 11.043 30.2617
RightArm  -7.63356 14.7806 33.5014
RightForeArm  -2.58857 14.0861 6.81539
RightHand  -2.12849 6.60171 -20.7913
LeftUpLeg  -18.3034 9.66956 -13.5697
LeftLeg  38.6414 4.72836 4.43322
LeftFoot  -15.0666 0.181166 2.32068
LeftToes  1.06247e-005 4.65855e-005 -8.18501e-006
